<svg width="20" height="17" viewBox="0 0 20 17" fill="none" xmlns="http://www.w3.org/2000/svg">
<path fill-rule="evenodd" clip-rule="evenodd" d="M9.56066 0.43934C10.1464 1.02513 10.1464 1.97487 9.56066 2.56066L3.62132 8.5L9.56066 14.4393C10.1464 15.0251 10.1464 15.9749 9.56066 16.5607C8.97487 17.1464 8.02513 17.1464 7.43934 16.5607L0.43934 9.56066C-0.146447 8.97487 -0.146447 8.02513 0.43934 7.43934L7.43934 0.43934C8.02513 -0.146447 8.97487 -0.146447 9.56066 0.43934Z" fill="#121212"/>
<path fill-rule="evenodd" clip-rule="evenodd" d="M0 8.5C0 7.67157 0.671573 7 1.5 7H18C18.8284 7 19.5 7.67157 19.5 8.5C19.5 9.32843 18.8284 10 18 10H1.5C0.671573 10 0 9.32843 0 8.5Z" fill="#121212"/>
</svg>
