<svg width="19" height="19" viewBox="0 0 19 19" fill="none" xmlns="http://www.w3.org/2000/svg">
<path d="M17.7915 0H0.741313C0.331274 0 0 0.331274 0 0.741313V17.7915C0 18.2015 0.331274 18.5328 0.741313 18.5328H17.7915C18.2015 18.5328 18.5328 18.2015 18.5328 17.7915V0.741313C18.5328 0.331274 18.2015 0 17.7915 0ZM17.0502 17.0502H12.7853V11.356H15.1946L15.556 8.55985H12.7853V6.77375C12.7853 5.96293 13.01 5.41158 14.1707 5.41158H15.651V2.90965C15.3938 2.8749 14.5158 2.79846 13.4919 2.79846C11.356 2.79846 9.89421 4.1027 9.89421 6.49575V8.55753H7.48031V11.3537H9.89653V17.0502H1.48263V1.48263H17.0502V17.0502Z" fill="#121212"/>
</svg>
