<svg width="19" height="19" viewBox="0 0 19 19" fill="none" xmlns="http://www.w3.org/2000/svg">
<path d="M9.25783 4.5088C6.62849 4.5088 4.50648 6.63081 4.50648 9.26015C4.50648 11.8895 6.62849 14.0115 9.25783 14.0115C11.8872 14.0115 14.0092 11.8895 14.0092 9.26015C14.0092 6.63081 11.8872 4.5088 9.25783 4.5088ZM9.25783 12.3482C7.55745 12.3482 6.1698 10.9605 6.1698 9.26015C6.1698 7.55976 7.55745 6.17212 9.25783 6.17212C10.9582 6.17212 12.3459 7.55976 12.3459 9.26015C12.3459 10.9605 10.9582 12.3482 9.25783 12.3482ZM14.2038 3.20687C13.5899 3.20687 13.0941 3.70262 13.0941 4.31652C13.0941 4.93042 13.5899 5.42617 14.2038 5.42617C14.8177 5.42617 15.3134 4.93274 15.3134 4.31652C15.3136 4.17075 15.285 4.02637 15.2293 3.89166C15.1736 3.75695 15.0919 3.63455 14.9888 3.53147C14.8858 3.42839 14.7634 3.34666 14.6286 3.29096C14.4939 3.23526 14.3496 3.20668 14.2038 3.20687ZM18.5196 9.26015C18.5196 7.98138 18.5312 6.7142 18.4594 5.43776C18.3876 3.95513 18.0493 2.6393 16.9652 1.55513C15.8787 0.468643 14.5652 0.132735 13.0825 0.0609207C11.8038 -0.010894 10.5366 0.00068906 9.26015 0.00068906C7.98138 0.00068906 6.7142 -0.010894 5.43776 0.0609207C3.95513 0.132735 2.6393 0.470959 1.55513 1.55513C0.468643 2.64162 0.132735 3.95513 0.0609207 5.43776C-0.010894 6.71652 0.00068906 7.9837 0.00068906 9.26015C0.00068906 10.5366 -0.010894 11.8061 0.0609207 13.0825C0.132735 14.5652 0.470959 15.881 1.55513 16.9652C2.64162 18.0517 3.95513 18.3876 5.43776 18.4594C6.71652 18.5312 7.9837 18.5196 9.26015 18.5196C10.5389 18.5196 11.8061 18.5312 13.0825 18.4594C14.5652 18.3876 15.881 18.0493 16.9652 16.9652C18.0517 15.8787 18.3876 14.5652 18.4594 13.0825C18.5335 11.8061 18.5196 10.5389 18.5196 9.26015ZM16.481 14.7227C16.3119 15.1443 16.108 15.4594 15.7814 15.7837C15.4547 16.1103 15.142 16.3142 14.7204 16.4833C13.5019 16.9675 10.6084 16.8586 9.25783 16.8586C7.90725 16.8586 5.0115 16.9675 3.79297 16.4856C3.37135 16.3165 3.05629 16.1127 2.73196 15.786C2.40532 15.4594 2.20146 15.1466 2.03235 14.725C1.5505 13.5042 1.65938 10.6107 1.65938 9.26015C1.65938 7.90957 1.5505 5.01382 2.03235 3.79528C2.20146 3.37366 2.40532 3.0586 2.73196 2.73428C3.0586 2.40996 3.37135 2.20378 3.79297 2.03467C5.0115 1.55281 7.90725 1.66169 9.25783 1.66169C10.6084 1.66169 13.5042 1.55281 14.7227 2.03467C15.1443 2.20378 15.4594 2.40764 15.7837 2.73428C16.1103 3.06092 16.3142 3.37366 16.4833 3.79528C16.9652 5.01382 16.8563 7.90957 16.8563 9.26015C16.8563 10.6107 16.9652 13.5042 16.481 14.7227Z" fill="#121212"/>
</svg>
