<svg width="20" height="20" viewBox="0 0 20 20" fill="none" xmlns="http://www.w3.org/2000/svg">
<rect opacity="0.01" width="20" height="20" fill="white"/>
<path d="M14.3744 13.8752C14.3744 14.2893 14.0386 14.6251 13.6244 14.6251H6.49984C5.8177 14.6273 5.22296 15.0896 5.05243 15.75C4.98244 15.9951 4.98244 16.2549 5.05243 16.5C5.22296 17.1605 5.8177 17.6227 6.49984 17.6249H8.7497C8.9568 17.6249 9.12468 17.7928 9.12468 17.9999H10.2496C10.2511 17.873 10.2334 17.7466 10.1971 17.6249C10.0266 16.9644 9.43185 16.5022 8.7497 16.5H6.49984C6.29275 16.5 6.12486 16.3321 6.12486 16.125C6.12486 15.9179 6.29275 15.75 6.49984 15.75H13.6244C14.3701 15.7514 15.0452 15.3092 15.3418 14.6251C15.447 14.3892 15.5007 14.1335 15.4993 13.8752H14.3744Z" fill="#121212"/>
<path fill-rule="evenodd" clip-rule="evenodd" d="M10.2485 13.5319C9.98982 13.5319 9.74176 13.4291 9.5589 13.2461L7.04581 10.733C5.75013 9.43762 5.36242 7.48924 6.06348 5.79648C6.76454 4.10373 8.4163 3 10.2485 3C12.0807 3 13.7324 4.10373 14.4335 5.79648C15.1346 7.48924 14.7468 9.43762 13.4512 10.733L10.9381 13.2461C10.7552 13.4291 10.5072 13.5319 10.2485 13.5319ZM11.147 4.20719C9.96066 3.89473 8.69793 4.2447 7.84163 5.12328C6.51224 6.45288 6.51224 8.60838 7.84163 9.93798L10.249 12.3453L12.6563 9.93798C13.5349 9.08169 13.8849 7.81895 13.5724 6.63257C13.26 5.44619 12.3334 4.51964 11.147 4.20719Z" fill="#121212"/>
<path fill-rule="evenodd" clip-rule="evenodd" d="M12.1245 7.20056C12.1245 8.23603 11.2851 9.07544 10.2496 9.07544C9.21417 9.07544 8.37476 8.23603 8.37476 7.20056C8.37476 6.16508 9.21417 5.32567 10.2496 5.32567C11.2851 5.32567 12.1245 6.16508 12.1245 7.20056ZM10.9994 7.20076C10.9994 6.78657 10.6637 6.4508 10.2495 6.4508C9.83527 6.4508 9.49951 6.78657 9.49951 7.20076C9.49951 7.61494 9.83527 7.95071 10.2495 7.95071C10.6637 7.95071 10.9994 7.61494 10.9994 7.20076Z" fill="#121212"/>
</svg>
