<svg width="20" height="20" viewBox="0 0 20 20" fill="none" xmlns="http://www.w3.org/2000/svg">
<circle cx="10" cy="10" r="10" fill="#00D0A6"/>
<path d="M12.9957 12.9091L12.5591 8.22527C12.5532 8.16314 12.5238 8.10537 12.4766 8.06329C12.4293 8.02121 12.3676 7.99785 12.3036 7.99781H11.5355V7.49762C11.5355 7.10043 11.3737 6.7195 11.0856 6.43864C10.7975 6.15778 10.4068 6 9.99937 6C9.59196 6 9.20124 6.15778 8.91316 6.43864C8.62508 6.7195 8.46324 7.10043 8.46324 7.49762V7.99781H7.69509C7.63109 7.99772 7.56938 8.02104 7.52215 8.06315C7.47492 8.10526 7.4456 8.16311 7.43999 8.22527L7.0043 12.9091C6.99127 13.0475 7.00795 13.1869 7.05328 13.3186C7.09861 13.4502 7.17159 13.5713 7.26758 13.6739C7.36356 13.7765 7.48043 13.8586 7.61074 13.9147C7.74104 13.9708 7.88192 13.9999 8.02439 14H11.9747C12.1172 14 12.2582 13.9711 12.3886 13.915C12.519 13.8589 12.636 13.7769 12.7321 13.6742C12.8282 13.5716 12.9013 13.4505 12.9466 13.3188C12.992 13.187 13.0087 13.0475 12.9957 12.9091ZM8.97533 7.49762C8.97294 7.36504 8.99767 7.23332 9.04806 7.11016C9.09845 6.98699 9.1735 6.87484 9.26882 6.78026C9.36415 6.68568 9.47785 6.61055 9.60328 6.55927C9.72871 6.50799 9.86336 6.48157 9.99937 6.48157C10.1354 6.48157 10.27 6.50799 10.3955 6.55927C10.5209 6.61055 10.6346 6.68568 10.7299 6.78026C10.8252 6.87484 10.9003 6.98699 10.9507 7.11016C11.0011 7.23332 11.0258 7.36504 11.0234 7.49762V7.99781H8.97533V7.49762ZM12.3535 13.3373C12.3056 13.3888 12.2471 13.4299 12.1819 13.4579C12.1166 13.4859 12.046 13.5002 11.9747 13.4998H8.02439C7.9531 13.4997 7.88261 13.4852 7.81744 13.457C7.75226 13.4289 7.69382 13.3878 7.64586 13.3363C7.5979 13.2849 7.56148 13.2243 7.53891 13.1584C7.51635 13.0925 7.50814 13.0227 7.51482 12.9535L7.92904 8.49799H8.46324V9.24842C8.46324 9.31462 8.49021 9.37812 8.53823 9.42493C8.58625 9.47175 8.65138 9.49805 8.71928 9.49805C8.78719 9.49805 8.85232 9.47175 8.90034 9.42493C8.94836 9.37812 8.97533 9.31462 8.97533 9.24842V8.49799H11.0234V9.24842C11.0234 9.31462 11.0504 9.37812 11.0984 9.42493C11.1464 9.47175 11.2115 9.49805 11.2795 9.49805C11.3474 9.49805 11.4125 9.47175 11.4605 9.42493C11.5085 9.37812 11.5355 9.31462 11.5355 9.24842V8.49799H12.0697L12.4842 12.9535C12.4913 13.0229 12.4832 13.093 12.4605 13.1591C12.4379 13.2253 12.4011 13.286 12.3526 13.3373H12.3535Z" fill="white"/>
</svg>
