<svg width="23" height="19" viewBox="0 0 23 19" fill="none" xmlns="http://www.w3.org/2000/svg">
<path d="M21.7399 3.47913C21.9096 3.68557 21.9224 3.97942 21.7711 4.19979C21.2562 4.95001 20.6243 5.62659 19.9064 6.19286C19.9073 6.26797 19.9073 6.3406 19.9073 6.40937V6.41777C19.9073 11.8997 15.7323 18.2602 8.06718 18.2602C5.71142 18.2602 3.52143 17.577 1.67602 16.3931C1.44091 16.2422 1.34099 15.9491 1.43502 15.6861C1.52905 15.423 1.79215 15.2597 2.0696 15.2921C2.35635 15.3256 2.63737 15.3367 2.95444 15.3367C4.15398 15.3367 5.28584 15.0516 6.2882 14.5414C5.01067 14.0479 4.01299 12.9997 3.59449 11.69C3.53165 11.4933 3.57434 11.2781 3.70752 11.1203C3.73448 11.0884 3.76437 11.0597 3.79661 11.0345C2.81042 10.2 2.18533 8.95328 2.18533 7.55522V7.50657C2.18533 7.29374 2.29808 7.09684 2.48163 6.98911C2.57085 6.93675 2.67031 6.90926 2.77031 6.90676C2.41373 6.25716 2.21098 5.51135 2.21081 4.71836M21.7399 3.47913L15.3459 2.00001M21.7399 3.47913C21.5701 3.27269 21.2842 3.20344 21.0388 3.30931C20.9986 3.32666 20.9582 3.3437 20.9176 3.36043M21.7399 3.47913L20.9176 3.36043M2.21081 4.71836C2.20835 3.91054 2.42232 3.11679 2.83048 2.41964C2.92997 2.24971 3.1065 2.13941 3.30285 2.12451C3.4992 2.10961 3.69036 2.19199 3.81436 2.34496C5.5097 4.43635 7.99339 5.85965 10.8028 6.19667C10.7984 6.11564 10.7961 6.03407 10.7961 5.95213C10.7961 3.44476 12.8238 1.40001 15.3459 1.40001M2.21081 4.71836C2.21081 4.71804 2.21081 4.71771 2.21081 4.71738H2.81081L2.21081 4.71934C2.21081 4.71901 2.21081 4.71869 2.21081 4.71836ZM15.3459 1.40001V2.00001M15.3459 1.40001C15.3455 1.40001 15.3451 1.40001 15.3446 1.40001L15.3459 2.00001M15.3459 1.40001C15.969 1.39882 16.5856 1.52585 17.1574 1.7732C17.6229 1.97456 18.0505 2.25215 18.4232 2.59379M15.3459 2.00001C15.887 1.99881 16.4226 2.10906 16.9192 2.32389C17.4158 2.53871 17.8628 2.85351 18.2324 3.24866M18.4232 2.59379C18.3222 2.61789 18.2206 2.63983 18.1185 2.65957L18.2324 3.24866M18.4232 2.59379C19.1296 2.42518 19.807 2.15048 20.4322 1.77856C20.6468 1.65094 20.9179 1.66948 21.1131 1.8251C21.3082 1.98073 21.3867 2.24093 21.31 2.47848C21.2102 2.7877 21.0783 3.0831 20.9176 3.36043M18.4232 2.59379C18.5086 2.67214 18.5912 2.75385 18.6706 2.83878L18.2324 3.24866M18.2324 3.24866C18.8059 3.13777 19.3641 2.96301 19.8968 2.72827L20.9176 3.36043" stroke="black" stroke-width="1.2" stroke-linejoin="round"/>
</svg>
