<svg width="17" height="17" viewBox="0 0 17 17" fill="none" xmlns="http://www.w3.org/2000/svg">
<path d="M12.1569 1.72423C11.0514 1.1414 9.80731 0.833328 8.55843 0.833328H8.54959C4.2951 0.833328 0.833318 4.29561 0.833318 8.55154C0.831958 9.79064 1.13449 11.0263 1.70488 12.1185L1.85377 12.4076C1.89796 12.4912 1.90748 12.5912 1.89184 12.6463C1.67565 13.2114 1.49685 13.7949 1.35952 14.3798C1.35068 14.4172 1.34592 14.456 1.34456 14.4934C1.33437 14.8212 1.42139 15.0816 1.60426 15.2673C1.72324 15.3884 1.93943 15.5319 2.29431 15.5319C2.3385 15.5332 2.38677 15.5271 2.43164 15.5176C2.96056 15.3992 3.74375 15.1143 4.31618 14.9069L4.47118 14.8504C4.771 14.7423 4.92668 14.4104 4.81791 14.1105C4.70913 13.8099 4.37532 13.6528 4.07823 13.7637L3.92119 13.8201C3.53843 13.9595 3.00883 14.152 2.57509 14.2826C2.68658 13.8677 2.82187 13.4508 2.98436 13.0224C3.10197 12.6402 3.06186 12.2178 2.88034 11.8778L2.73213 11.5881C2.24468 10.6557 1.9877 9.60634 1.98906 8.55222C1.98906 4.93352 4.9328 1.98946 8.55027 1.98946H8.55775C9.62035 1.98946 10.6782 2.25129 11.6177 2.74707C14.8178 4.43502 16.0483 8.4128 14.3609 11.6132C12.9856 14.222 10.0174 15.6019 7.1423 14.9626C6.82889 14.8953 6.52092 15.0905 6.45226 15.402C6.38359 15.7134 6.58007 16.0222 6.89144 16.0916C7.44416 16.214 7.99959 16.2731 8.54959 16.2731C11.3648 16.2731 14.0298 14.7198 15.3834 12.1526C17.3679 8.38764 15.9205 3.71006 12.1569 1.72423" fill="#29B095"/>
<path d="M11.6235 9.69637C11.5847 9.63397 11.4835 9.59602 11.3317 9.52055C11.1799 9.44508 10.4315 9.07994 10.2928 9.03061C10.1541 8.98128 10.0512 8.9543 9.95 9.10566C9.84881 9.25703 9.55788 9.59644 9.4685 9.69595C9.37911 9.79546 9.29141 9.80979 9.1392 9.73516C8.69165 9.55761 8.27802 9.3043 7.91646 8.98634C7.58421 8.68184 7.29915 8.32957 7.07066 7.94111C6.98128 7.79016 7.06139 7.70879 7.13686 7.63374C7.20474 7.56585 7.28907 7.45749 7.36538 7.36853C7.42829 7.29215 7.47957 7.2069 7.51759 7.11555C7.53749 7.07372 7.54674 7.02762 7.54454 6.98136C7.54233 6.93509 7.52873 6.89009 7.50494 6.85034C7.467 6.77445 7.16342 6.03279 7.03609 5.73048C6.90875 5.42817 6.78311 5.4775 6.69414 5.4775C6.60518 5.4775 6.50399 5.46527 6.40279 5.46527C6.32593 5.46693 6.25024 5.4845 6.1805 5.51686C6.11077 5.54923 6.04849 5.59569 5.9976 5.65332C5.82613 5.81447 5.69023 6.00967 5.5986 6.2264C5.50697 6.44313 5.46163 6.67662 5.4655 6.9119C5.51506 7.48149 5.73088 8.02397 6.08615 8.47195C6.16288 8.57229 7.14023 10.1463 8.68468 10.7488C10.2291 11.3513 10.2317 11.151 10.5099 11.1253C10.7218 11.0847 10.9227 10.9998 11.0995 10.8763C11.2763 10.7528 11.4251 10.5934 11.5362 10.4085C11.6339 10.1847 11.6645 9.93714 11.6235 9.69637Z" fill="#29B095"/>
</svg>
