<svg width="36" height="36" viewBox="0 0 36 36" fill="none" xmlns="http://www.w3.org/2000/svg">
<g clip-path="url(#clip0_7_3073)">
<path d="M30.5 18C30.5 24.9036 24.9036 30.5 18 30.5C11.0964 30.5 5.5 24.9036 5.5 18C5.5 11.0964 11.0964 5.5 18 5.5C24.9036 5.5 30.5 11.0964 30.5 18Z" fill="#00D0A6" stroke="#F8F8F8"/>
</g>
<g clip-path="url(#clip1_7_3073)">
<path d="M12.0355 18.3269C12.0092 18.2894 11.9741 18.2587 11.9334 18.2377C11.8926 18.2166 11.8473 18.2058 11.8015 18.206C11.7683 18.2059 11.7353 18.2112 11.7038 18.2215C11.6439 18.2401 11.5916 18.2776 11.5548 18.3285C11.518 18.3794 11.4988 18.4408 11.5 18.5036V23.0156C11.5001 23.1538 11.528 23.2907 11.5822 23.4179C11.6364 23.5452 11.7156 23.6602 11.8152 23.7561C11.9149 23.852 12.0328 23.9269 12.162 23.9762C12.2912 24.0255 12.429 24.0482 12.5672 24.043C13.1118 24.0223 13.5549 23.5485 13.5549 22.9866V21.377C13.5536 20.7279 13.3451 20.0961 12.9598 19.5738L12.0355 18.3269Z" fill="white"/>
<path d="M23.4904 11.9502H23.468C23.452 11.9502 23.4317 11.9502 23.4114 11.9524C23.2563 11.9592 23.1048 12.0013 22.9683 12.0752C22.8319 12.1492 22.714 12.2533 22.6236 12.3795L17.9924 18.6666L13.3651 12.3821C13.289 12.2668 13.1905 12.168 13.0753 12.0916C12.9602 12.0152 12.8308 11.9628 12.6949 11.9376C12.5591 11.9124 12.4195 11.9148 12.2846 11.9448C12.1498 11.9747 12.0223 12.0316 11.9099 12.112C11.7975 12.1923 11.7024 12.2945 11.6304 12.4124C11.5584 12.5304 11.511 12.6616 11.4909 12.7983C11.4707 12.935 11.4784 13.0744 11.5134 13.2081C11.5484 13.3417 11.61 13.467 11.6945 13.5763L17.155 20.9949C17.2498 21.1283 17.375 21.237 17.5204 21.3122C17.6657 21.3873 17.8269 21.4266 17.9905 21.4269C18.1541 21.4271 18.3153 21.3883 18.4609 21.3136C18.6065 21.2389 18.7321 21.1306 18.8273 20.9975L22.4452 16.0839V23.0158C22.4452 23.2883 22.5535 23.5496 22.7462 23.7423C22.9389 23.935 23.2002 24.0432 23.4727 24.0432C23.7452 24.0432 24.0066 23.935 24.1993 23.7423C24.3919 23.5496 24.5002 23.2883 24.5002 23.0158V12.9777C24.4992 12.7085 24.3931 12.4504 24.2044 12.2584C24.0158 12.0665 23.7595 11.9559 23.4904 11.9502Z" fill="white"/>
</g>
<defs>
<clipPath id="clip0_7_3073">
<rect width="26" height="26" fill="white" transform="translate(5 5)"/>
</clipPath>
<clipPath id="clip1_7_3073">
<rect width="13" height="12.093" fill="white" transform="translate(11.5 11.95)"/>
</clipPath>
</defs>
</svg>
