<svg width="139" height="32" viewBox="0 0 139 32" fill="none" xmlns="http://www.w3.org/2000/svg">
<path d="M3.14209 22.243C2.3378 22.2426 1.56436 21.9335 0.981351 21.3796C0.398339 20.8257 0.0502322 20.0691 0.00885185 19.2661V28.5256C-0.000180294 28.9427 0.0742046 29.3575 0.227643 29.7455C0.381082 30.1336 0.610485 30.4871 0.902395 30.7853C1.19431 31.0835 1.54284 31.3205 1.92757 31.4822C2.31229 31.644 2.72546 31.7273 3.14282 31.7273C3.56018 31.7273 3.97335 31.644 4.35807 31.4822C4.74279 31.3205 5.09133 31.0835 5.38324 30.7853C5.67516 30.4871 5.90456 30.1336 6.058 29.7455C6.21144 29.3575 6.28582 28.9427 6.27679 28.5256V19.2646C6.23506 20.0679 5.88669 20.8246 5.30347 21.3787C4.72026 21.9329 3.94666 22.2422 3.14209 22.243Z" fill="#00C49A"/>
<path d="M3.14204 22.243C4.87735 22.243 6.28409 20.8366 6.28409 19.1018C6.28409 17.3669 4.87735 15.9605 3.14204 15.9605C1.40674 15.9605 0 17.3669 0 19.1018C0 20.8366 1.40674 22.243 3.14204 22.243Z" fill="#7FE1CC"/>
<path d="M30.0858 6.57619C29.5206 6.5776 28.9654 6.42638 28.479 6.13851C27.9925 5.85064 27.5929 5.43678 27.3222 4.94065C27.0515 4.44452 26.9198 3.88452 26.9411 3.31978C26.9624 2.75505 27.1358 2.20653 27.443 1.73215L16.6103 16.8514L19.0285 20.2276C19.4471 20.7311 19.6977 21.3529 19.7454 22.0059C19.793 22.6589 19.6353 23.3104 19.2942 23.8694L26.9482 13.1802V28.3582C26.9872 27.5535 27.3344 26.7946 27.9178 26.2388C28.5013 25.683 29.2763 25.373 30.0822 25.373C30.8881 25.373 31.663 25.683 32.2465 26.2388C32.83 26.7946 33.1772 27.5535 33.2161 28.3582V3.59784C33.1751 4.40062 32.8276 5.15707 32.2452 5.71122C31.6628 6.26538 30.8899 6.57498 30.0858 6.57619Z" fill="#00B6AB"/>
<path d="M16.6132 19.1014C17.0753 19.101 17.5318 19.2026 17.9501 19.399C18.3684 19.5954 18.7381 19.8817 19.0328 20.2376L16.6146 16.8614L5.69091 1.60563C5.45134 1.27109 5.1482 0.986994 4.79881 0.769571C4.44942 0.552149 4.06062 0.405656 3.6546 0.338457C3.24859 0.271258 2.8333 0.284669 2.43247 0.377924C2.03164 0.471179 1.6531 0.642452 1.31847 0.881964C0.983848 1.12148 0.699685 1.42454 0.48221 1.77384C0.264735 2.12315 0.118206 2.51186 0.0509913 2.91778C-0.0162239 3.3237 -0.00280973 3.73888 0.0904679 4.13961C0.183745 4.54035 0.35506 4.9188 0.594629 5.25334L13.9307 23.8779C13.9483 23.9073 13.9674 23.9352 13.9865 23.9631C13.6753 23.4896 13.4982 22.9408 13.4738 22.3747C13.4494 21.8087 13.5787 21.2467 13.8481 20.7482C14.1174 20.2498 14.5166 19.8335 15.0034 19.5436C15.4903 19.2536 16.0465 19.1008 16.6132 19.1014Z" fill="#00C49A"/>
<path d="M98.4869 4.2478C95.5915 1.66285 91.6581 0.293304 87.1139 0.293304H77.7171C78.5365 0.311038 79.3164 0.648932 79.8897 1.23459C80.4629 1.82025 80.784 2.60709 80.784 3.42652C80.784 4.24594 80.4629 5.03278 79.8897 5.61844C79.3164 6.2041 78.5365 6.54199 77.7171 6.55973H87.1139C90.0944 6.55973 92.5845 7.37587 94.3083 8.92009C96.1318 10.545 97.0509 12.9245 97.0509 15.9997C97.0509 19.075 96.1274 21.4309 94.3053 23.0456C92.5728 24.581 90.0856 25.3942 87.1109 25.3942H80.8577V28.195V28.2023C80.868 28.3065 80.8738 28.4107 80.8738 28.5179C80.8738 29.3512 80.5428 30.1503 79.9536 30.7396C79.3644 31.329 78.5652 31.6603 77.7318 31.6606H87.1139C91.6449 31.6606 95.571 30.3029 98.4663 27.734C101.644 24.9172 103.322 20.8584 103.322 15.9909C103.322 11.1234 101.651 7.06909 98.4869 4.2478Z" fill="#0099CE"/>
<path d="M80.8577 28.1937V12.8543C80.84 12.035 80.502 11.2553 79.9162 10.6822C79.3304 10.1091 78.5434 9.78815 77.7238 9.78815C76.9041 9.78815 76.1171 10.1091 75.5313 10.6822C74.9455 11.2553 74.6075 12.035 74.5898 12.8543V28.5167C74.5885 27.7107 74.8972 26.9351 75.4519 26.3502C76.0067 25.7654 76.765 25.4161 77.5701 25.3747C78.3752 25.3332 79.1655 25.6027 79.7774 26.1274C80.3893 26.6521 80.7761 27.3919 80.8577 28.1937Z" fill="#00A7BD"/>
<path d="M119.691 28.8586C119.691 28.0255 120.023 27.2265 120.612 26.6374C121.201 26.0483 122 25.7173 122.834 25.7173C120.91 25.7128 119.031 25.1389 117.433 24.0679C115.835 22.9969 114.59 21.4769 113.856 19.6994C113.121 17.922 112.929 15.9669 113.305 14.0807C113.68 12.1945 114.606 10.4617 115.965 9.10081C116.549 8.50887 116.874 7.70919 116.869 6.8777C116.863 6.04621 116.527 5.25102 115.935 4.66705C115.343 4.08309 114.543 3.75819 113.711 3.76384C112.88 3.76948 112.084 4.1052 111.5 4.69714C109.292 6.91576 107.784 9.73305 107.161 12.8002C106.538 15.8674 106.829 19.0497 107.998 21.9533C109.166 24.8568 111.16 27.3541 113.734 29.1359C116.307 30.9177 119.347 31.9058 122.477 31.9779H122.49C121.721 31.893 121.011 31.528 120.495 30.9526C119.979 30.3771 119.693 29.6316 119.691 28.8586Z" fill="#0099CE"/>
<path d="M122.834 6.28257C124.569 6.28257 125.976 4.87617 125.976 3.14128C125.976 1.4064 124.569 0 122.834 0C121.098 0 119.691 1.4064 119.691 3.14128C119.691 4.87617 121.098 6.28257 122.834 6.28257Z" fill="#7FC4EF"/>
<path d="M16.6133 25.3843C18.3486 25.3843 19.7553 23.9779 19.7553 22.243C19.7553 20.5081 18.3486 19.1017 16.6133 19.1017C14.878 19.1017 13.4713 20.5081 13.4713 22.243C13.4713 23.9779 14.878 25.3843 16.6133 25.3843Z" fill="#7FE1CC"/>
<path d="M30.0858 31.6624C31.8211 31.6624 33.2279 30.256 33.2279 28.5211C33.2279 26.7862 31.8211 25.3798 30.0858 25.3798C28.3505 25.3798 26.9438 26.7862 26.9438 28.5211C26.9438 30.256 28.3505 31.6624 30.0858 31.6624Z" fill="#7FDAD5"/>
<path d="M30.0858 6.57588C31.8211 6.57588 33.2279 5.16947 33.2279 3.43459C33.2279 1.69971 31.8211 0.293304 30.0858 0.293304C28.3505 0.293304 26.9438 1.69971 26.9438 3.43459C26.9438 5.16947 28.3505 6.57588 30.0858 6.57588Z" fill="#7FDAD5"/>
<path d="M77.7318 31.6581C79.4671 31.6581 80.8739 30.2517 80.8739 28.5168C80.8739 26.7819 79.4671 25.3755 77.7318 25.3755C75.9965 25.3755 74.5898 26.7819 74.5898 28.5168C74.5898 30.2517 75.9965 31.6581 77.7318 31.6581Z" fill="#7FD3DE"/>
<path d="M77.7246 6.56302C79.455 6.56302 80.8578 5.16057 80.8578 3.43054C80.8578 1.70052 79.455 0.298065 77.7246 0.298065C75.9941 0.298065 74.5913 1.70052 74.5913 3.43054C74.5913 5.16057 75.9941 6.56302 77.7246 6.56302Z" fill="#7FCCE6"/>
<path d="M123.134 0.013092C123.921 0.0896931 124.649 0.459823 125.175 1.04967C125.7 1.63952 125.984 2.40574 125.97 3.19554C125.955 3.98533 125.644 4.74066 125.097 5.3109C124.55 5.88114 123.808 6.22438 123.02 6.27218C125.573 6.33339 128 7.39663 129.776 9.23211C131.552 11.0676 132.534 13.528 132.51 16.0815C132.487 18.6351 131.459 21.0767 129.649 22.8789C127.84 24.6811 125.393 25.6991 122.839 25.7129C123.648 25.7053 124.428 26.0094 125.018 26.5622C125.608 27.1149 125.962 27.8737 126.006 28.6807C126.051 29.4877 125.783 30.2808 125.257 30.8952C124.732 31.5096 123.99 31.8978 123.186 31.9793C127.366 31.8833 131.343 30.1537 134.264 27.1613C137.184 24.169 138.816 20.1519 138.809 15.9711C138.802 11.7903 137.158 7.77845 134.228 4.79546C131.298 1.81247 127.315 0.0956968 123.134 0.013092Z" fill="#008AE0"/>
<path d="M122.834 32C124.569 32 125.976 30.5936 125.976 28.8587C125.976 27.1238 124.569 25.7174 122.834 25.7174C121.098 25.7174 119.691 27.1238 119.691 28.8587C119.691 30.5936 121.098 32 122.834 32Z" fill="#7FCCE6"/>
<path d="M51.0685 28.8585C51.0685 28.0254 51.3995 27.2264 51.9888 26.6373C52.578 26.0482 53.3772 25.7173 54.2105 25.7173C52.2866 25.7135 50.4068 25.1399 48.8086 24.0691C47.2104 22.9982 45.9653 21.478 45.2305 19.7003C44.4956 17.9226 44.3041 15.9671 44.6799 14.0806C45.0557 12.1942 45.9821 10.4613 47.3421 9.10074C47.9262 8.50821 48.2509 7.70797 48.2449 6.87606C48.2388 6.04416 47.9025 5.24873 47.3098 4.66477C46.7171 4.08081 45.9167 3.75614 45.0846 3.7622C44.2525 3.76825 43.4569 4.10454 42.8728 4.69706C40.6648 6.91568 39.1562 9.73297 38.5337 12.8001C37.9111 15.8673 38.202 19.0496 39.3702 21.9532C40.5385 24.8568 42.5329 27.354 45.1064 29.1358C47.68 30.9176 50.7197 31.9057 53.8493 31.9778H53.864C53.0959 31.8926 52.3861 31.5274 51.8704 30.9519C51.3547 30.3765 51.0692 29.6312 51.0685 28.8585Z" fill="#00B6AB"/>
<path d="M54.2105 6.28257C55.9458 6.28257 57.3525 4.87617 57.3525 3.14128C57.3525 1.4064 55.9458 0 54.2105 0C52.4752 0 51.0684 1.4064 51.0684 3.14128C51.0684 4.87617 52.4752 6.28257 54.2105 6.28257Z" fill="#7FD3DE"/>
<path d="M54.5115 0.013092C55.2979 0.089693 56.0266 0.459823 56.5521 1.04967C57.0776 1.63952 57.3615 2.40574 57.347 3.19554C57.3326 3.98533 57.0209 4.74066 56.4741 5.3109C55.9274 5.88114 55.1857 6.22438 54.397 6.27217C56.9506 6.33339 59.3775 7.39662 61.1533 9.23211C62.9292 11.0676 63.9114 13.528 63.8877 16.0815C63.864 18.635 62.8362 21.0767 61.0266 22.8789C59.2169 24.6811 56.7707 25.6991 54.2164 25.7129C55.018 25.7149 55.7884 26.0231 56.3702 26.5744C56.9519 27.1257 57.3009 27.8784 57.3457 28.6785C57.3906 29.4786 57.1279 30.2655 56.6114 30.8783C56.0949 31.4911 55.3636 31.8834 54.5673 31.9749C58.7317 31.855 62.6849 30.115 65.5854 27.1252C68.486 24.1354 70.1049 20.132 70.0976 15.9669C70.0904 11.8018 68.4575 7.80398 65.5465 4.82433C62.6355 1.84468 58.6763 0.118466 54.5115 0.013092Z" fill="#00A7BD"/>
<path d="M54.2105 32C55.9458 32 57.3525 30.5936 57.3525 28.8587C57.3525 27.1238 55.9458 25.7174 54.2105 25.7174C52.4752 25.7174 51.0684 27.1238 51.0684 28.8587C51.0684 30.5936 52.4752 32 54.2105 32Z" fill="#7FDAD5"/>
</svg>
