<svg width="36" height="36" viewBox="0 0 36 36" fill="none" xmlns="http://www.w3.org/2000/svg">
<g clip-path="url(#clip0_7_3093)">
<path d="M17.9997 29.6977C25.0145 29.6977 30.7012 24.0128 30.7012 17C30.7012 9.98731 25.0145 4.30237 17.9997 4.30237C10.9848 4.30237 5.29816 9.98731 5.29816 17C5.29816 24.0128 10.9848 29.6977 17.9997 29.6977Z" fill="white" stroke="#F8F8F8"/>
<path d="M28.9999 17.1836C28.9999 13.2279 24.0751 10 17.9999 10C11.9247 10 6.99994 13.2263 6.99994 17.1836C6.99994 17.2864 6.99994 17.5696 6.99994 17.6044C6.99994 21.8038 11.3036 25.1994 17.9984 25.1994C24.7359 25.1994 28.9999 21.7991 28.9999 17.6044V17.1836Z" fill="#283480"/>
<path d="M28.578 17.1802C28.578 20.9112 23.8434 23.9366 18.0027 23.9366C12.162 23.9366 7.42578 20.9176 7.42578 17.1802C7.42578 13.4429 12.1604 10.4239 18.0027 10.4239C23.845 10.4239 28.578 13.4492 28.578 17.1802Z" fill="#009FE3"/>
<path d="M14.49 15.0489C14.49 15.06 14.379 15.1692 14.4472 15.2562C14.6151 15.4698 15.1301 15.5917 15.6514 15.4746C15.9684 15.405 16.3597 15.0885 16.7448 14.7831C17.1631 14.4524 17.5767 14.1201 17.9934 13.992C18.2864 13.8848 18.6064 13.8764 18.9045 13.9682C19.2072 14.0799 19.4882 14.2432 19.7349 14.4508C20.4574 14.9951 23.3682 17.5315 23.8705 17.9698C25.3681 17.3209 26.9258 16.8201 28.5212 16.4746C28.3089 15.1724 27.515 13.9825 26.3123 13.0062C24.6359 13.7103 22.5871 14.0758 20.5842 13.0996C20.5731 13.0996 19.4892 12.5822 18.4197 12.6075C16.824 12.6423 16.1427 13.3227 15.4138 14.0553L14.49 15.0489Z" fill="white"/>
<path d="M23.7519 18.242C23.7186 18.212 20.3309 15.2515 19.5639 14.6756C19.1187 14.3433 18.8731 14.2579 18.6132 14.2262C18.4613 14.2135 18.3084 14.2279 18.1616 14.2689C17.8035 14.3654 17.3376 14.6772 16.9225 15.0063C16.5073 15.3354 16.089 15.6677 15.715 15.7515C15.2612 15.8448 14.7889 15.7742 14.3824 15.5522C14.2876 15.4938 14.2113 15.4099 14.1622 15.3101C14.1346 15.2337 14.1307 15.1508 14.1507 15.0721C14.1708 14.9935 14.2139 14.9226 14.2747 14.8686L15.2096 13.8591L15.5391 13.5348C15.2514 13.5787 14.9671 13.6427 14.6882 13.7262C14.3667 13.8339 14.0319 13.8967 13.6931 13.9129C13.3525 13.8785 13.014 13.8257 12.679 13.7547C11.7523 13.5162 10.8503 13.1904 9.98527 12.7816C8.65583 13.7705 7.76689 15.0047 7.51019 16.3655C7.70192 16.4161 8.00933 16.5079 8.14402 16.5363C11.1547 17.2041 12.088 17.8924 12.2639 18.0348C12.3636 17.9224 12.4876 17.8341 12.6266 17.7765C12.7655 17.719 12.9157 17.6936 13.0658 17.7025C13.2159 17.7113 13.3621 17.7541 13.4933 17.8275C13.6245 17.901 13.7372 18.0032 13.8231 18.1265C14.0264 17.963 14.2798 17.8742 14.5409 17.8749C14.6873 17.8761 14.8324 17.9017 14.9703 17.9509C15.1007 17.9956 15.2203 18.0672 15.3213 18.1609C15.4223 18.2547 15.5024 18.3686 15.5566 18.4952C15.6877 18.435 15.8306 18.4047 15.9749 18.4066C16.1475 18.4086 16.3179 18.4457 16.4756 18.5158C17.0302 18.7547 17.1094 19.2974 17.0667 19.7072C17.1062 19.7049 17.1459 19.7049 17.1855 19.7072C17.5017 19.7076 17.8048 19.8334 18.0282 20.0568C18.2516 20.2802 18.3771 20.583 18.3771 20.8987C18.3776 21.0949 18.3286 21.2881 18.2345 21.4604C18.4135 21.5617 18.8683 21.7879 19.2708 21.7373C19.5877 21.6977 19.7113 21.5886 19.7557 21.5269C19.8 21.4651 19.8159 21.4351 19.7873 21.4003L18.938 20.4509C18.938 20.4509 18.7986 20.318 18.8445 20.2674C18.8905 20.2167 18.9792 20.2911 19.0394 20.3417C19.472 20.7009 19.9997 21.2452 19.9997 21.2452C19.9997 21.2452 20.0425 21.3196 20.2389 21.3544C20.3556 21.374 20.475 21.3702 20.5901 21.343C20.7052 21.3158 20.8137 21.2659 20.9092 21.1962C20.9637 21.1487 21.0131 21.0957 21.0566 21.0379H21.0471C21.1065 20.956 21.1364 20.8564 21.1321 20.7553C21.1278 20.6542 21.0895 20.5576 21.0233 20.481L20.0314 19.3734C20.0314 19.3734 19.8903 19.2436 19.9379 19.1914C19.9854 19.1392 20.0726 19.2136 20.1344 19.2658C20.4513 19.5268 20.8918 19.9715 21.3164 20.3876C21.3988 20.4477 21.7728 20.6787 22.2672 20.3544C22.3773 20.2933 22.4684 20.2031 22.5304 20.0937C22.5925 19.9842 22.6231 19.8598 22.619 19.7341C22.5953 19.5825 22.523 19.4425 22.413 19.3354L21.0598 17.9762C21.0598 17.9762 20.9171 17.8544 20.9663 17.7927C21.0154 17.731 21.1009 17.8164 21.1612 17.867C21.5937 18.2278 22.76 19.2911 22.76 19.2911C22.8975 19.3793 23.0582 19.4246 23.2216 19.4213C23.385 19.4179 23.5437 19.3659 23.6774 19.2721C23.7636 19.2221 23.8361 19.1519 23.8889 19.0675C23.9416 18.9831 23.9729 18.8871 23.9801 18.7879C23.9834 18.6859 23.9647 18.5844 23.9253 18.4903C23.886 18.3961 23.8268 18.3114 23.7519 18.242Z" fill="white"/>
<path d="M17.1884 19.9683C16.9792 19.9683 16.7495 20.0902 16.713 20.0712C16.6766 20.0522 16.7257 19.9762 16.7447 19.9272C16.7637 19.8781 17.0426 19.049 16.3676 18.761C15.8526 18.5395 15.5373 18.7879 15.4295 18.9003C15.401 18.9303 15.3883 18.9288 15.3852 18.8908C15.381 18.7357 15.3283 18.5858 15.2345 18.4621C15.1408 18.3384 15.0106 18.2471 14.8623 18.2009C14.6525 18.1363 14.4275 18.1411 14.2207 18.2147C14.0139 18.2882 13.8366 18.4266 13.715 18.6091C13.6918 18.446 13.6143 18.2954 13.495 18.1816C13.3757 18.0678 13.2215 17.9974 13.0572 17.9817C12.893 17.9659 12.7282 18.0059 12.5894 18.095C12.4506 18.1841 12.3459 18.3173 12.2921 18.473C12.2383 18.6288 12.2385 18.7981 12.2927 18.9537C12.3469 19.1094 12.452 19.2422 12.591 19.331C12.73 19.4198 12.8949 19.4593 13.0591 19.4431C13.2233 19.427 13.3774 19.3562 13.4964 19.242C13.4994 19.2502 13.4994 19.2592 13.4964 19.2674C13.4478 19.494 13.4824 19.7305 13.5938 19.9337C13.7051 20.137 13.886 20.2936 14.1033 20.375C14.2211 20.4203 14.3487 20.434 14.4735 20.4149C14.5983 20.3957 14.716 20.3443 14.8147 20.2658C14.8734 20.2246 14.8829 20.242 14.8749 20.2958C14.8496 20.4667 14.8749 20.8307 15.3931 21.0395C15.5203 21.1008 15.6638 21.1199 15.8026 21.094C15.9414 21.0681 16.0683 20.9985 16.1648 20.8955C16.2297 20.8354 16.2472 20.8449 16.2519 20.9383C16.2603 21.1192 16.3216 21.2938 16.4282 21.4404C16.5348 21.587 16.6822 21.6992 16.8519 21.7631C17.0217 21.827 17.2065 21.8399 17.3836 21.8C17.5606 21.7602 17.722 21.6695 17.848 21.539C17.9739 21.4086 18.0588 21.2442 18.0922 21.0661C18.1256 20.888 18.106 20.704 18.0358 20.5369C17.9656 20.3699 17.848 20.227 17.6974 20.1259C17.5468 20.0248 17.3698 19.9701 17.1884 19.9683Z" fill="white"/>
</g>
<defs>
<clipPath id="clip0_7_3093">
<rect width="36" height="36" fill="white"/>
</clipPath>
</defs>
</svg>
